<svg id="Camada_1" data-name="Camada 1" xmlns="http://www.w3.org/2000/svg" viewBox="0 0 300 300"><defs><style>.cls-1{fill:#49216e;}.cls-2{fill:#a468d6;}.cls-3{fill:#fff;}.cls-4{fill:#341951;}</style></defs><title>statusPrancheta 1 cópia 2</title><circle class="cls-1" cx="150" cy="155.7" r="140.28"/><circle class="cls-2" cx="150" cy="155.7" r="113.43"/><path class="cls-3" d="M105.38,206.31C153.67,254.54,267,133.67,207.67,103c-21.1-10.91-33.85-7.3-43.8,1.82-2.23-15.45,3.78-32.21,26-55.31a113.52,113.52,0,0,0-16.66-4.84c-22,27.74-23.84,52.68-19.35,71.8-6.78,9.36-13.08,20.1-21.56,27.88C112,163,88.5,173.85,95.36,192.21,37.83,212.51,107,238.84,80.07,245a112.4,112.4,0,0,0,14.26,9.53C124.24,232.19,59.07,213,105.38,206.31Z"/><path class="cls-4" d="M183.43,9.8l-2.32,9.1-6.62,26L173,51H125.07l-1.44-5.63-6.62-26-2.31-9.1a149.73,149.73,0,0,1,68.73-.44Z"/></svg>