<svg xmlns="http://www.w3.org/2000/svg" viewBox="0 0 300 300"><defs><style>.cls-1{fill:#49216e;}.cls-2{fill:#a468d6;}.cls-3{fill:#fff;}.cls-4{fill:#341951;}</style></defs><title>statusPrancheta 1 cópia</title><g id="Camada_3" data-name="Camada 3"><circle class="cls-1" cx="150" cy="155.7" r="140.28"/><circle class="cls-2" cx="150" cy="155.7" r="113.43"/><path class="cls-3" d="M216.33,114c-6.39-10.88-17-9.79-28.38-14.27-8.87-3.49-26.7-15.4-33.95-15.4-15.62,0-23.24,5.59-38,9-21,4.85-38.33,11.25-38.33,26,0,8.42-12.39,23.23-7.67,32.67,15,30,29.73,14.92,43.67,21.33,9.3,4.28,6,13,16,14,20.44,2.12,23.68,9.34,26.91,15.86-65,20.95-6.36,58.43,5.34,65.32a115.66,115.66,0,0,0,11.57-1.82c-37.1-26.1-50.35-44.27-3.32-52.61l.12,0c33,6.56,25.38-10.78,40-10.78s20.66-27.75,19-42.77C227.55,144.53,223.88,126.86,216.33,114Z"/><path class="cls-4" d="M183.43,9.8l-2.32,9.1-6.62,26L173,51H125.07l-1.44-5.63-6.62-26-2.31-9.1a149.73,149.73,0,0,1,68.73-.44Z"/></g></svg>