<svg xmlns="http://www.w3.org/2000/svg" viewBox="0 0 100 100"><defs><style>.cls-1{fill:#fff;}</style></defs><title>logosPrancheta 3</title><g id="Camada_3" data-name="Camada 3"><path class="cls-1" d="M22.37,45.52a27.11,27.11,0,0,0-3.54,6.67,29.88,29.88,0,0,0-1.77,7.34c-.24,2.41,0,5,.93,6.52a21.86,21.86,0,0,0,4.89,5.34,36.44,36.44,0,0,0,13.45,6.36,57.34,57.34,0,0,0,15,1.89c10.12,0,20.37-3.14,28.3-9.64a36.64,36.64,0,0,0,2.85-2.58c.46-.45.9-.92,1.34-1.39l.64-.73a1.88,1.88,0,0,0,.16-.18.82.82,0,0,0,.11-.18A4.39,4.39,0,0,0,85,63.5a12.66,12.66,0,0,0-.06-1.83,30.65,30.65,0,0,0-.62-3.82,130.91,130.91,0,0,0-4.6-15.36,93.27,93.27,0,0,1,6.85,14.74,36.1,36.1,0,0,1,1.12,4A16.5,16.5,0,0,1,88,63.45,7.38,7.38,0,0,1,87.78,66a3.71,3.71,0,0,1-.3.74,4,4,0,0,1-.41.64l-.62.85c-.43.55-.86,1.1-1.31,1.64a42,42,0,0,1-2.88,3.09,43.58,43.58,0,0,1-14.2,9.12A52.52,52.52,0,0,1,51.5,85.6a48.32,48.32,0,0,1-16.84-2.13,40.4,40.4,0,0,1-14.93-8.4,27.81,27.81,0,0,1-5.54-6.84,11.42,11.42,0,0,1-1.28-4.74A20.54,20.54,0,0,1,13.12,59a33.87,33.87,0,0,1,2.42-8.18,30.64,30.64,0,0,1,4.38-7.3Z"/><path class="cls-1" d="M43.42,34.61c-.6-1-1.14-2.09-1.66-3.14s-1-2.11-1.54-3.15L38.75,25.2c-.5-1-1-2.06-1.48-2.88l-.86-1.4,1.5-1.38a12,12,0,0,1,3.42-2.19,19.26,19.26,0,0,1,3.54-1.16,30.12,30.12,0,0,1,7-.72,33.29,33.29,0,0,1,7,.84,21.67,21.67,0,0,1,3.52,1.17,13.48,13.48,0,0,1,1.81,1,7,7,0,0,1,1.89,1.74l1,1.39-.77,1.21c-.58.92-1.17,2-1.72,3.13s-1.13,2.25-1.69,3.4-1.13,2.29-1.73,3.44-1.2,2.31-1.86,3.46c0-1.33.08-2.63.19-3.94s.28-2.6.48-3.89.47-2.58.77-3.87a27.86,27.86,0,0,1,1.25-3.94l.25,2.6a13.31,13.31,0,0,0-1.79-.67A19.92,19.92,0,0,0,57.77,22a46.66,46.66,0,0,0-6-.49,43,43,0,0,0-5.93.28,14.56,14.56,0,0,0-5,1.41l.65-2.79A26.68,26.68,0,0,1,42.44,24c.23,1.17.41,2.35.56,3.52s.27,2.35.33,3.53S43.45,33.41,43.42,34.61Z"/><path class="cls-1" d="M22,52.74a10.35,10.35,0,0,1-3.52-.47,16.76,16.76,0,0,1-3.28-1.42,24.35,24.35,0,0,1-3-2,26,26,0,0,1-2.67-2.42h3.6a14.7,14.7,0,0,0-2.39,5.59,14,14,0,0,0-.19,3A16.32,16.32,0,0,0,11,58.35l-1.22-.57h0a13.85,13.85,0,0,1,2.74.3c.87.16,1.71.37,2.54.6,1.66.46,3.27,1,4.86,1.59-1.68-.18-3.37-.3-5.05-.33-.83,0-1.66,0-2.48,0a11.48,11.48,0,0,0-2.29.33h0l-.4.18-.82-.75A9.22,9.22,0,0,1,6.54,56a11.2,11.2,0,0,1-.61-4.46,12.53,12.53,0,0,1,1.12-4.39A13.93,13.93,0,0,1,9.54,43.5l2-2.17,1.57,2.17c.56.76,1.26,1.62,1.92,2.42s1.36,1.61,2.07,2.4,1.46,1.54,2.24,2.3A28.24,28.24,0,0,0,22,52.74Z"/><path class="cls-1" d="M79.21,51.62a4.1,4.1,0,0,0,1.16-.91c.34-.35.67-.72,1-1.1.64-.75,1.25-1.54,1.85-2.33,1.19-1.59,2.36-3.22,3.46-4.85l1-1.55L89.62,42a13.22,13.22,0,0,1,3.76,3.27,10.13,10.13,0,0,1,2,4.78,10.7,10.7,0,0,1-.53,5,13.17,13.17,0,0,1-2.33,4.12h0l-1.12,1.1-.91-.57-1-.58c-.32-.17-.65-.35-1-.51a10.33,10.33,0,0,0-2.1-.69,7.06,7.06,0,0,0-2.25-.09,5.09,5.09,0,0,0-2.21.82A5.43,5.43,0,0,1,84,57a8,8,0,0,1,2.52-.81,12.1,12.1,0,0,1,2.69-.1c.45,0,.89.11,1.35.16l1.32.27-2,.54h0a8.09,8.09,0,0,0,1.42-6.26,5.66,5.66,0,0,0-1.42-2.55,8.87,8.87,0,0,0-2.6-1.81l3-.39c-1.76,1.1-3.51,2.13-5.3,3.12-.9.5-1.81,1-2.73,1.42-.47.23-.94.44-1.42.63A4.15,4.15,0,0,1,79.21,51.62Z"/><path class="cls-1" d="M74.44,51.23a30.66,30.66,0,0,1-7.25,3.48,49.16,49.16,0,0,1-7.85,1.93,77.33,77.33,0,0,1-16.18.87,48.4,48.4,0,0,1-16.3-3.31A20.21,20.21,0,0,1,19.29,49a11.92,11.92,0,0,1-2.43-4.69,11.37,11.37,0,0,1-.3-2.71,11.5,11.5,0,0,1,.33-2.6,11.88,11.88,0,0,1,2.27-4.63,15.53,15.53,0,0,1,3.51-3.25,27.25,27.25,0,0,1,7.94-3.6,58.24,58.24,0,0,1,16.28-2,71.87,71.87,0,0,1,16,1.86,46.32,46.32,0,0,1,7.66,2.5,17.24,17.24,0,0,1,6.55,4.55,12.4,12.4,0,0,0-3.33-2,24.79,24.79,0,0,0-3.66-1.28,49.36,49.36,0,0,0-7.64-1.39A82.36,82.36,0,0,0,47,29.52,59.9,59.9,0,0,0,32.2,32.44a24,24,0,0,0-6.27,3.19,7.71,7.71,0,0,0-3.25,4.64A5.19,5.19,0,0,0,24,45a15.82,15.82,0,0,0,5.32,3.7,43.89,43.89,0,0,0,6.9,2.43,60.74,60.74,0,0,0,7.43,1.52A78.79,78.79,0,0,0,59,53.4,73.74,73.74,0,0,0,74.44,51.23Z"/></g></svg>